<svg id="a48c8106-d290-4123-8ab7-6409f41db970" data-name="svg2" xmlns="http://www.w3.org/2000/svg" width="146.3869" height="146.3869" viewBox="0 0 146.3869 146.3869"><path id="b89cbc4e-94f6-42b7-918e-5f842d4b63fb" data-name="path2" d="M146.3869,26.4167c-28.3709,11.73-42.0119,5.1355-54.3066-3.1383L78.0842,71.8258c12.2826,8.3214,27.1112,15.1634,54.3307,2.9773Z" style="fill:#91c300"/><path id="f5236d6c-82a1-4de6-a10c-d8b9dec6359e" data-name="path4" d="M54.1553,124.0116C41.8333,115.7183,28.438,108.8974,0,120.6562L13.9248,72.0174c28.444-11.7608,42.1085-5.1054,54.4184,3.2385L54.1553,124.01Z" style="fill:#00b4f1"/><path id="e56ac874-72ee-4d1a-9112-03b6fa5f4f48" data-name="path6" d="M70.7077,66.4761C63.2893,61.4807,55.3109,56.8179,43.98,56.732c-7.4759-.0577-16.3752,2.0661-27.6727,6.7374l14.0008-48.513C58.733,3.2032,72.3861,9.855,84.6875,18.1928Z" style="fill:#f8682c"/><path id="a7fa244a-630f-445b-af48-392dc9287a01" data-name="path8" d="M75.724,79.9357c12.3067,8.2862,25.9769,14.8863,54.378,3.1469l-13.999,48.3522c-28.4061,11.7479-42.0478,5.0952-54.3418-3.2418Z" style="fill:#ffc300"/></svg>